<mxfile host="app.diagrams.net" modified="2023-03-28T22:27:59.381Z" agent="Mozilla/5.0 (Windows NT 10.0; Win64; x64) AppleWebKit/537.36 (KHTML, like Gecko) Chrome/111.0.0.0 Safari/537.36 Edg/111.0.1661.54" etag="crGedZsuKDT5yUmpLK_U" version="21.1.1" type="github">
  <diagram name="Página-1" id="rkHG6nmuOjkpt8-TUzvK">
    <mxGraphModel dx="4146" dy="954" grid="1" gridSize="10" guides="1" tooltips="1" connect="1" arrows="1" fold="1" page="1" pageScale="1" pageWidth="827" pageHeight="1169" math="0" shadow="0">
      <root>
        <mxCell id="0" />
        <mxCell id="1" parent="0" />
        <mxCell id="XnEvQe8ai3ZGjiJY6H-x-5" value="Cadastrar Portifólio do Artista" style="shape=rect;html=1;verticalAlign=top;fontStyle=1;whiteSpace=wrap;align=center;fillColor=#f5f5f5;strokeColor=#666666;fontColor=#333333;" parent="1" vertex="1">
          <mxGeometry x="-1506" y="92" width="667" height="348" as="geometry" />
        </mxCell>
        <mxCell id="XnEvQe8ai3ZGjiJY6H-x-2" value="Incluir Portifólio" style="ellipse;whiteSpace=wrap;html=1;" parent="1" vertex="1">
          <mxGeometry x="-1419" y="127" width="70" height="70" as="geometry" />
        </mxCell>
        <mxCell id="XnEvQe8ai3ZGjiJY6H-x-3" value="Curador" style="shape=umlActor;html=1;verticalLabelPosition=bottom;verticalAlign=top;align=center;" parent="1" vertex="1">
          <mxGeometry x="-1619" y="220" width="30" height="60" as="geometry" />
        </mxCell>
        <mxCell id="XnEvQe8ai3ZGjiJY6H-x-4" value="" style="edgeStyle=none;html=1;endArrow=block;endFill=0;endSize=12;verticalAlign=bottom;rounded=0;entryX=0;entryY=0.5;entryDx=0;entryDy=0;exitX=0.744;exitY=0.472;exitDx=0;exitDy=0;exitPerimeter=0;" parent="1" source="XnEvQe8ai3ZGjiJY6H-x-3" target="XnEvQe8ai3ZGjiJY6H-x-2" edge="1">
          <mxGeometry width="160" relative="1" as="geometry">
            <mxPoint x="-1549" y="227" as="sourcePoint" />
            <mxPoint x="-1389" y="227" as="targetPoint" />
          </mxGeometry>
        </mxCell>
        <mxCell id="XnEvQe8ai3ZGjiJY6H-x-7" value="Alterar Portifólio" style="ellipse;whiteSpace=wrap;html=1;" parent="1" vertex="1">
          <mxGeometry x="-1249" y="180" width="74" height="70" as="geometry" />
        </mxCell>
        <mxCell id="XnEvQe8ai3ZGjiJY6H-x-8" value="Excluir Portifloio" style="ellipse;whiteSpace=wrap;html=1;" parent="1" vertex="1">
          <mxGeometry x="-1113" y="250" width="84" height="70" as="geometry" />
        </mxCell>
        <mxCell id="XnEvQe8ai3ZGjiJY6H-x-13" value="" style="edgeStyle=none;html=1;endArrow=block;endFill=0;endSize=12;verticalAlign=bottom;rounded=0;entryX=0;entryY=0.714;entryDx=0;entryDy=0;entryPerimeter=0;exitX=0.5;exitY=0.5;exitDx=0;exitDy=0;exitPerimeter=0;" parent="1" source="XnEvQe8ai3ZGjiJY6H-x-3" target="XnEvQe8ai3ZGjiJY6H-x-7" edge="1">
          <mxGeometry width="160" relative="1" as="geometry">
            <mxPoint x="-1539" y="306.5" as="sourcePoint" />
            <mxPoint x="-1379" y="306.5" as="targetPoint" />
          </mxGeometry>
        </mxCell>
        <mxCell id="XnEvQe8ai3ZGjiJY6H-x-14" value="" style="edgeStyle=none;html=1;endArrow=block;endFill=0;endSize=12;verticalAlign=bottom;rounded=0;exitX=0.744;exitY=0.55;exitDx=0;exitDy=0;exitPerimeter=0;" parent="1" source="XnEvQe8ai3ZGjiJY6H-x-3" target="XnEvQe8ai3ZGjiJY6H-x-8" edge="1">
          <mxGeometry width="160" relative="1" as="geometry">
            <mxPoint x="-1529" y="376.5" as="sourcePoint" />
            <mxPoint x="-1309" y="337" as="targetPoint" />
          </mxGeometry>
        </mxCell>
        <mxCell id="XnEvQe8ai3ZGjiJY6H-x-19" value="Consultar&amp;nbsp;&lt;br&gt;Portofólio" style="ellipse;whiteSpace=wrap;html=1;" parent="1" vertex="1">
          <mxGeometry x="-989" y="340" width="96" height="70" as="geometry" />
        </mxCell>
        <mxCell id="XnEvQe8ai3ZGjiJY6H-x-20" value="" style="edgeStyle=none;html=1;endArrow=block;endFill=0;endSize=12;verticalAlign=bottom;rounded=0;exitX=0.5;exitY=0.5;exitDx=0;exitDy=0;exitPerimeter=0;" parent="1" source="XnEvQe8ai3ZGjiJY6H-x-3" target="XnEvQe8ai3ZGjiJY6H-x-19" edge="1">
          <mxGeometry width="160" relative="1" as="geometry">
            <mxPoint x="-1589" y="317" as="sourcePoint" />
            <mxPoint x="-1269" y="332" as="targetPoint" />
          </mxGeometry>
        </mxCell>
        <mxCell id="nVL4J-MFMbPPPKdqbXxZ-2" value="&lt;font style=&quot;font-size: 40px;&quot;&gt;Centro Cultural&lt;/font&gt;" style="text;html=1;strokeColor=none;fillColor=none;align=center;verticalAlign=middle;whiteSpace=wrap;rounded=0;" parent="1" vertex="1">
          <mxGeometry x="-1609" y="30" width="280" height="30" as="geometry" />
        </mxCell>
        <mxCell id="ASfWBYzMuZ3_pJoTGtA6-3" value="Cadastrar Curriculo do Artista" style="shape=rect;html=1;verticalAlign=top;fontStyle=1;whiteSpace=wrap;align=center;fillColor=#f5f5f5;fontColor=#333333;strokeColor=#666666;" parent="1" vertex="1">
          <mxGeometry x="-1504" y="490" width="665" height="300" as="geometry" />
        </mxCell>
        <mxCell id="ASfWBYzMuZ3_pJoTGtA6-4" value="Incluir Curriculo" style="ellipse;whiteSpace=wrap;html=1;" parent="1" vertex="1">
          <mxGeometry x="-1429" y="535" width="70" height="70" as="geometry" />
        </mxCell>
        <mxCell id="ASfWBYzMuZ3_pJoTGtA6-5" value="Curador" style="shape=umlActor;html=1;verticalLabelPosition=bottom;verticalAlign=top;align=center;" parent="1" vertex="1">
          <mxGeometry x="-1629" y="628" width="30" height="60" as="geometry" />
        </mxCell>
        <mxCell id="ASfWBYzMuZ3_pJoTGtA6-6" value="" style="edgeStyle=none;html=1;endArrow=block;endFill=0;endSize=12;verticalAlign=bottom;rounded=0;entryX=0;entryY=0.5;entryDx=0;entryDy=0;exitX=0.744;exitY=0.472;exitDx=0;exitDy=0;exitPerimeter=0;" parent="1" source="ASfWBYzMuZ3_pJoTGtA6-5" target="ASfWBYzMuZ3_pJoTGtA6-4" edge="1">
          <mxGeometry width="160" relative="1" as="geometry">
            <mxPoint x="-1559" y="635" as="sourcePoint" />
            <mxPoint x="-1399" y="635" as="targetPoint" />
          </mxGeometry>
        </mxCell>
        <mxCell id="ASfWBYzMuZ3_pJoTGtA6-7" value="Alterar Curriculo" style="ellipse;whiteSpace=wrap;html=1;" parent="1" vertex="1">
          <mxGeometry x="-1255" y="535" width="76" height="70" as="geometry" />
        </mxCell>
        <mxCell id="ASfWBYzMuZ3_pJoTGtA6-8" value="Excluir Curriculo" style="ellipse;whiteSpace=wrap;html=1;" parent="1" vertex="1">
          <mxGeometry x="-1149" y="615" width="80" height="70" as="geometry" />
        </mxCell>
        <mxCell id="ASfWBYzMuZ3_pJoTGtA6-9" value="" style="edgeStyle=none;html=1;endArrow=block;endFill=0;endSize=12;verticalAlign=bottom;rounded=0;entryX=0;entryY=0.714;entryDx=0;entryDy=0;entryPerimeter=0;exitX=0.5;exitY=0.5;exitDx=0;exitDy=0;exitPerimeter=0;" parent="1" source="ASfWBYzMuZ3_pJoTGtA6-5" target="ASfWBYzMuZ3_pJoTGtA6-7" edge="1">
          <mxGeometry width="160" relative="1" as="geometry">
            <mxPoint x="-1549" y="714.5" as="sourcePoint" />
            <mxPoint x="-1389" y="714.5" as="targetPoint" />
          </mxGeometry>
        </mxCell>
        <mxCell id="ASfWBYzMuZ3_pJoTGtA6-10" value="" style="edgeStyle=none;html=1;endArrow=block;endFill=0;endSize=12;verticalAlign=bottom;rounded=0;exitX=0.744;exitY=0.55;exitDx=0;exitDy=0;exitPerimeter=0;" parent="1" source="ASfWBYzMuZ3_pJoTGtA6-5" target="ASfWBYzMuZ3_pJoTGtA6-8" edge="1">
          <mxGeometry width="160" relative="1" as="geometry">
            <mxPoint x="-1539" y="784.5" as="sourcePoint" />
            <mxPoint x="-1319" y="745" as="targetPoint" />
          </mxGeometry>
        </mxCell>
        <mxCell id="ASfWBYzMuZ3_pJoTGtA6-11" value="Consultar&amp;nbsp;&lt;br&gt;Curriculo" style="ellipse;whiteSpace=wrap;html=1;" parent="1" vertex="1">
          <mxGeometry x="-1279" y="685" width="96" height="70" as="geometry" />
        </mxCell>
        <mxCell id="ASfWBYzMuZ3_pJoTGtA6-12" value="" style="edgeStyle=none;html=1;endArrow=block;endFill=0;endSize=12;verticalAlign=bottom;rounded=0;exitX=0.5;exitY=0.5;exitDx=0;exitDy=0;exitPerimeter=0;" parent="1" source="ASfWBYzMuZ3_pJoTGtA6-5" target="ASfWBYzMuZ3_pJoTGtA6-11" edge="1">
          <mxGeometry width="160" relative="1" as="geometry">
            <mxPoint x="-1599" y="725" as="sourcePoint" />
            <mxPoint x="-1279" y="740" as="targetPoint" />
          </mxGeometry>
        </mxCell>
        <mxCell id="ASfWBYzMuZ3_pJoTGtA6-13" value="Cadastrar Curriculo do Artista&amp;nbsp;" style="ellipse;whiteSpace=wrap;html=1;" parent="1" vertex="1">
          <mxGeometry x="-969" y="180" width="100" height="70" as="geometry" />
        </mxCell>
        <mxCell id="ASfWBYzMuZ3_pJoTGtA6-14" value="&amp;lt;&amp;lt;include&amp;gt;&amp;gt;" style="edgeStyle=none;html=1;endArrow=open;verticalAlign=bottom;dashed=1;labelBackgroundColor=none;rounded=0;entryX=-0.08;entryY=0.471;entryDx=0;entryDy=0;entryPerimeter=0;" parent="1" source="XnEvQe8ai3ZGjiJY6H-x-8" target="ASfWBYzMuZ3_pJoTGtA6-13" edge="1">
          <mxGeometry width="160" relative="1" as="geometry">
            <mxPoint x="-1239" y="263" as="sourcePoint" />
            <mxPoint x="-1099" y="264.5" as="targetPoint" />
          </mxGeometry>
        </mxCell>
        <mxCell id="ASfWBYzMuZ3_pJoTGtA6-15" value="&amp;lt;&amp;lt;include&amp;gt;&amp;gt;" style="edgeStyle=none;html=1;endArrow=open;verticalAlign=bottom;dashed=1;labelBackgroundColor=none;rounded=0;exitX=1;exitY=0.5;exitDx=0;exitDy=0;" parent="1" source="XnEvQe8ai3ZGjiJY6H-x-19" target="ASfWBYzMuZ3_pJoTGtA6-13" edge="1">
          <mxGeometry width="160" relative="1" as="geometry">
            <mxPoint x="-1279" y="350" as="sourcePoint" />
            <mxPoint x="-1119" y="350" as="targetPoint" />
          </mxGeometry>
        </mxCell>
        <mxCell id="ASfWBYzMuZ3_pJoTGtA6-16" value="&amp;lt;&amp;lt;include&amp;gt;&amp;gt;" style="edgeStyle=none;html=1;endArrow=open;verticalAlign=bottom;dashed=1;labelBackgroundColor=none;rounded=0;entryX=0.307;entryY=0.071;entryDx=0;entryDy=0;entryPerimeter=0;" parent="1" target="ASfWBYzMuZ3_pJoTGtA6-13" edge="1">
          <mxGeometry x="-0.0868" y="1" width="160" relative="1" as="geometry">
            <mxPoint x="-1349" y="140" as="sourcePoint" />
            <mxPoint x="-1109" y="200" as="targetPoint" />
            <mxPoint as="offset" />
          </mxGeometry>
        </mxCell>
        <mxCell id="ASfWBYzMuZ3_pJoTGtA6-17" value="&amp;lt;&amp;lt;include&amp;gt;&amp;gt;" style="edgeStyle=none;html=1;endArrow=open;verticalAlign=bottom;dashed=1;labelBackgroundColor=none;rounded=0;entryX=0.06;entryY=0.135;entryDx=0;entryDy=0;entryPerimeter=0;exitX=1;exitY=0.5;exitDx=0;exitDy=0;" parent="1" source="XnEvQe8ai3ZGjiJY6H-x-7" target="ASfWBYzMuZ3_pJoTGtA6-13" edge="1">
          <mxGeometry width="160" relative="1" as="geometry">
            <mxPoint x="-1249" y="190" as="sourcePoint" />
            <mxPoint x="-1089" y="190" as="targetPoint" />
          </mxGeometry>
        </mxCell>
        <mxCell id="ASfWBYzMuZ3_pJoTGtA6-18" value="Cadastrar Obras do Artista" style="shape=rect;html=1;verticalAlign=top;fontStyle=1;whiteSpace=wrap;align=center;fillColor=#f5f5f5;fontColor=#333333;strokeColor=#666666;" parent="1" vertex="1">
          <mxGeometry x="-1486" y="830" width="637" height="310" as="geometry" />
        </mxCell>
        <mxCell id="ASfWBYzMuZ3_pJoTGtA6-19" value="Incluir Obra" style="ellipse;whiteSpace=wrap;html=1;" parent="1" vertex="1">
          <mxGeometry x="-1369" y="885" width="60" height="70" as="geometry" />
        </mxCell>
        <mxCell id="ASfWBYzMuZ3_pJoTGtA6-20" value="Curador" style="shape=umlActor;html=1;verticalLabelPosition=bottom;verticalAlign=top;align=center;" parent="1" vertex="1">
          <mxGeometry x="-1639" y="1030" width="30" height="60" as="geometry" />
        </mxCell>
        <mxCell id="ASfWBYzMuZ3_pJoTGtA6-21" value="" style="edgeStyle=none;html=1;endArrow=block;endFill=0;endSize=12;verticalAlign=bottom;rounded=0;entryX=0;entryY=0.5;entryDx=0;entryDy=0;exitX=0.744;exitY=0.472;exitDx=0;exitDy=0;exitPerimeter=0;" parent="1" source="ASfWBYzMuZ3_pJoTGtA6-20" target="ASfWBYzMuZ3_pJoTGtA6-19" edge="1">
          <mxGeometry width="160" relative="1" as="geometry">
            <mxPoint x="-1559" y="975" as="sourcePoint" />
            <mxPoint x="-1399" y="975" as="targetPoint" />
          </mxGeometry>
        </mxCell>
        <mxCell id="ASfWBYzMuZ3_pJoTGtA6-22" value="Alterar&lt;br&gt;Obra" style="ellipse;whiteSpace=wrap;html=1;" parent="1" vertex="1">
          <mxGeometry x="-1105" y="880" width="76" height="70" as="geometry" />
        </mxCell>
        <mxCell id="ASfWBYzMuZ3_pJoTGtA6-23" value="Excluir &lt;br&gt;Obra" style="ellipse;whiteSpace=wrap;html=1;" parent="1" vertex="1">
          <mxGeometry x="-989" y="955" width="80" height="70" as="geometry" />
        </mxCell>
        <mxCell id="ASfWBYzMuZ3_pJoTGtA6-24" value="" style="edgeStyle=none;html=1;endArrow=block;endFill=0;endSize=12;verticalAlign=bottom;rounded=0;entryX=0;entryY=0.714;entryDx=0;entryDy=0;entryPerimeter=0;exitX=0.5;exitY=0.5;exitDx=0;exitDy=0;exitPerimeter=0;" parent="1" source="ASfWBYzMuZ3_pJoTGtA6-20" target="ASfWBYzMuZ3_pJoTGtA6-22" edge="1">
          <mxGeometry width="160" relative="1" as="geometry">
            <mxPoint x="-1549" y="1054.5" as="sourcePoint" />
            <mxPoint x="-1389" y="1054.5" as="targetPoint" />
          </mxGeometry>
        </mxCell>
        <mxCell id="ASfWBYzMuZ3_pJoTGtA6-25" value="" style="edgeStyle=none;html=1;endArrow=block;endFill=0;endSize=12;verticalAlign=bottom;rounded=0;exitX=0.744;exitY=0.55;exitDx=0;exitDy=0;exitPerimeter=0;" parent="1" source="ASfWBYzMuZ3_pJoTGtA6-20" target="ASfWBYzMuZ3_pJoTGtA6-23" edge="1">
          <mxGeometry width="160" relative="1" as="geometry">
            <mxPoint x="-1539" y="1124.5" as="sourcePoint" />
            <mxPoint x="-1319" y="1085" as="targetPoint" />
          </mxGeometry>
        </mxCell>
        <mxCell id="ASfWBYzMuZ3_pJoTGtA6-26" value="Consultar&amp;nbsp;&lt;br&gt;Obra" style="ellipse;whiteSpace=wrap;html=1;" parent="1" vertex="1">
          <mxGeometry x="-1099" y="1040" width="96" height="70" as="geometry" />
        </mxCell>
        <mxCell id="ASfWBYzMuZ3_pJoTGtA6-27" value="" style="edgeStyle=none;html=1;endArrow=block;endFill=0;endSize=12;verticalAlign=bottom;rounded=0;exitX=0.5;exitY=0.5;exitDx=0;exitDy=0;exitPerimeter=0;" parent="1" source="ASfWBYzMuZ3_pJoTGtA6-20" target="ASfWBYzMuZ3_pJoTGtA6-26" edge="1">
          <mxGeometry width="160" relative="1" as="geometry">
            <mxPoint x="-1599" y="1065" as="sourcePoint" />
            <mxPoint x="-1279" y="1080" as="targetPoint" />
          </mxGeometry>
        </mxCell>
        <mxCell id="ASfWBYzMuZ3_pJoTGtA6-31" value="O cadastro das obras&lt;br&gt;do artista contempla&amp;nbsp;&lt;br&gt;informações como&lt;br&gt;fotos e exposições que&amp;nbsp;&lt;br&gt;o artista realizou" style="shape=note2;boundedLbl=1;whiteSpace=wrap;html=1;size=25;verticalAlign=top;align=center;fillColor=#dae8fc;strokeColor=#6c8ebf;" parent="1" vertex="1">
          <mxGeometry x="-1654" y="835" width="160" height="160" as="geometry" />
        </mxCell>
        <mxCell id="ASfWBYzMuZ3_pJoTGtA6-32" value="Cadastrar &lt;br&gt;Obras &lt;br&gt;Artista&amp;nbsp;" style="ellipse;whiteSpace=wrap;html=1;" parent="1" vertex="1">
          <mxGeometry x="-1409" y="360" width="100" height="70" as="geometry" />
        </mxCell>
        <mxCell id="ASfWBYzMuZ3_pJoTGtA6-33" value="&amp;lt;&amp;lt;include&amp;gt;&amp;gt;" style="edgeStyle=none;html=1;endArrow=open;verticalAlign=bottom;dashed=1;labelBackgroundColor=none;rounded=0;entryX=1.097;entryY=0.537;entryDx=0;entryDy=0;entryPerimeter=0;exitX=0;exitY=0.5;exitDx=0;exitDy=0;" parent="1" source="XnEvQe8ai3ZGjiJY6H-x-19" target="ASfWBYzMuZ3_pJoTGtA6-32" edge="1">
          <mxGeometry x="0.25" y="30" width="160" relative="1" as="geometry">
            <mxPoint x="-1239" y="400" as="sourcePoint" />
            <mxPoint x="-1079" y="400" as="targetPoint" />
            <mxPoint as="offset" />
          </mxGeometry>
        </mxCell>
        <mxCell id="ASfWBYzMuZ3_pJoTGtA6-34" value="&amp;lt;&amp;lt;include&amp;gt;&amp;gt;" style="edgeStyle=none;html=1;endArrow=open;verticalAlign=bottom;dashed=1;labelBackgroundColor=none;rounded=0;entryX=1.008;entryY=0.292;entryDx=0;entryDy=0;entryPerimeter=0;exitX=0;exitY=0.5;exitDx=0;exitDy=0;" parent="1" target="ASfWBYzMuZ3_pJoTGtA6-32" edge="1">
          <mxGeometry x="0.25" y="30" width="160" relative="1" as="geometry">
            <mxPoint x="-1099" y="307" as="sourcePoint" />
            <mxPoint x="-1469" y="320" as="targetPoint" />
            <mxPoint as="offset" />
          </mxGeometry>
        </mxCell>
        <mxCell id="ASfWBYzMuZ3_pJoTGtA6-35" value="&amp;lt;&amp;lt;include&amp;gt;&amp;gt;" style="edgeStyle=none;html=1;endArrow=open;verticalAlign=bottom;dashed=1;labelBackgroundColor=none;rounded=0;entryX=1;entryY=0;entryDx=0;entryDy=0;exitX=0;exitY=1;exitDx=0;exitDy=0;" parent="1" source="XnEvQe8ai3ZGjiJY6H-x-7" target="ASfWBYzMuZ3_pJoTGtA6-32" edge="1">
          <mxGeometry x="0.25" y="30" width="160" relative="1" as="geometry">
            <mxPoint x="-1269" y="250" as="sourcePoint" />
            <mxPoint x="-1439" y="323" as="targetPoint" />
            <mxPoint as="offset" />
          </mxGeometry>
        </mxCell>
        <mxCell id="ASfWBYzMuZ3_pJoTGtA6-36" value="&amp;lt;&amp;lt;include&amp;gt;&amp;gt;" style="edgeStyle=none;html=1;endArrow=open;verticalAlign=bottom;dashed=1;labelBackgroundColor=none;rounded=0;exitX=0;exitY=1;exitDx=0;exitDy=0;" parent="1" edge="1">
          <mxGeometry x="0.25" y="30" width="160" relative="1" as="geometry">
            <mxPoint x="-1369" y="197" as="sourcePoint" />
            <mxPoint x="-1389" y="360" as="targetPoint" />
            <mxPoint as="offset" />
          </mxGeometry>
        </mxCell>
      </root>
    </mxGraphModel>
  </diagram>
</mxfile>
